<svg width="800" height="420" viewBox="0 0 800 420" xmlns="http://www.w3.org/2000/svg">
  <defs>
    <linearGradient id="goldGradLight" x1="0%" y1="0%" x2="100%" y2="100%">
      <stop offset="0%" stop-color="#C9A12B" />
      <stop offset="50%" stop-color="#8C6E14" />
      <stop offset="100%" stop-color="#C9A12B" />
    </linearGradient>
    <radialGradient id="bgGradLight" cx="50%" cy="40%" r="80%">
      <stop offset="0%" stop-color="#FDFBF5" />
      <stop offset="100%" stop-color="#F0EAE0" />
    </radialGradient>
    <filter id="shadowLight" x="-20%" y="-20%" width="140%" height="140%">
      <feDropShadow dx="0" dy="4" stdDeviation="4" flood-color="rgba(100,100,80,0.2)"/>
    </filter>
  </defs>

  <rect x="0" y="0" width="800" height="420" fill="url(#bgGradLight)" />
  
  <g opacity="0.03" fill="none" stroke="#C9A12B" stroke-width="2">
    <path d="M100,100 Q150,50 200,100 T300,100" />
    <path d="M600,100 Q650,50 700,100 T800,100" />
    <path d="M100,350 Q150,400 200,350 T300,350" />
    <path d="M600,350 Q650,400 700,350 T800,350" />
    <circle cx="400" cy="210" r="200" stroke-width="1" opacity="0.5" stroke-dasharray="10,10"/>
  </g>

  <g transform="translate(400, 150)" filter="url(#shadowLight)">
    <circle cx="0" cy="0" r="75" fill="none" stroke="url(#goldGradLight)" stroke-width="4" />
    <circle cx="0" cy="0" r="65" fill="none" stroke="url(#goldGradLight)" stroke-width="1.5" opacity="0.7"/>
    <path d="M-22 -45 L-12 -28 L0 -42 L12 -28 L22 -45 L18 -15 L-18 -15 Z" fill="url(#goldGradLight)" />
    <g transform="translate(0, 10) scale(1.1)">
      <g transform="rotate(40)">
        <path d="M-4 0 L-3 -55 Q-8 -65 0 -65 Q8 -65 3 -55 L4 0 Z" fill="url(#goldGradLight)" />
        <circle cx="0" cy="25" r="11" stroke="url(#goldGradLight)" stroke-width="3.5" fill="none" />
      </g>
      <g transform="rotate(-40)">
        <path d="M-4 0 L-3 -55 Q-8 -65 0 -65 Q8 -65 3 -55 L4 0 Z" fill="url(#goldGradLight)" />
        <circle cx="0" cy="25" r="11" stroke="url(#goldGradLight)" stroke-width="3.5" fill="none" />
      </g>
      <circle cx="0" cy="-5" r="3.5" fill="#FDFBF5" />
    </g>
  </g>

  <g filter="url(#shadowLight)">
    <text x="50%" y="300" text-anchor="middle" font-family="serif" font-weight="bold" font-size="110" fill="url(#goldGradLight)" letter-spacing="8">404</text>
    <text x="50%" y="345" text-anchor="middle" font-family="sans-serif" font-weight="bold" font-size="26" fill="url(#goldGradLight)" letter-spacing="1">KHÔNG TÌM THẤY TRANG</text>
    <text x="50%" y="375" text-anchor="middle" font-family="sans-serif" font-size="17" fill="#5A4A42" font-style="italic">"Kéo bén quá, lỡ tay cắt mất đường link rồi!"</text>
  </g>
</svg>