<svg width="20" height="20" viewBox="0 0 20 20" fill="#C5C6C9" xmlns="http://www.w3.org/2000/svg">
<g clip-path="url(#clip0_15888_4037)">
<path d="M4.58333 5.83333C6.19167 5.83333 7.5 4.525 7.5 2.91667C7.5 1.30833 6.19167 0 4.58333 0C2.975 0 1.66667 1.30833 1.66667 2.91667C1.66667 4.525 2.975 5.83333 4.58333 5.83333ZM4.58333 1.66667C5.2725 1.66667 5.83333 2.2275 5.83333 2.91667C5.83333 3.60583 5.2725 4.16667 4.58333 4.16667C3.89417 4.16667 3.33333 3.60583 3.33333 2.91667C3.33333 2.2275 3.89417 1.66667 4.58333 1.66667ZM8.33333 8.33333C7.64417 8.33333 7.08333 8.89417 7.08333 9.58333C7.08333 9.85667 7.17 10.1158 7.3325 10.3325C7.60917 10.7 7.535 11.2225 7.16667 11.4992C7.01667 11.6117 6.84083 11.6667 6.66667 11.6667C6.41333 11.6667 6.16333 11.5517 6 11.3342C5.61833 10.8258 5.41583 10.2208 5.41583 9.58333C5.41583 7.975 6.72417 6.66667 8.3325 6.66667C9.245 6.66667 10.1175 7.1025 10.6658 7.8325C10.9425 8.20083 10.8675 8.72333 10.5 8.99917C10.1308 9.27583 9.61 9.20083 9.33333 8.83333C9.095 8.515 8.73 8.3325 8.33333 8.3325V8.33333ZM12.0833 5.83333C13.6917 5.83333 15 4.525 15 2.91667C15 1.30833 13.6917 0 12.0833 0C10.475 0 9.16667 1.30833 9.16667 2.91667C9.16667 4.525 10.475 5.83333 12.0833 5.83333ZM12.0833 1.66667C12.7725 1.66667 13.3333 2.2275 13.3333 2.91667C13.3333 3.60583 12.7725 4.16667 12.0833 4.16667C11.3942 4.16667 10.8333 3.60583 10.8333 2.91667C10.8333 2.2275 11.3942 1.66667 12.0833 1.66667ZM18.9133 15.945L18.1017 15.4767C18.24 15.0625 18.3333 14.6275 18.3333 14.1667C18.3333 13.7058 18.2408 13.2708 18.1017 12.8567L18.9133 12.3883C19.3117 12.1583 19.4483 11.6483 19.2183 11.25C18.9875 10.8508 18.4792 10.7133 18.08 10.945L17.2692 11.4133C16.6817 10.7517 15.8992 10.2675 15 10.085V9.1675C15 8.7075 14.6267 8.33417 14.1667 8.33417C13.7067 8.33417 13.3333 8.7075 13.3333 9.1675V10.085C12.4342 10.2683 11.6517 10.7525 11.0642 11.4133L10.2533 10.945C9.85333 10.7142 9.345 10.8508 9.115 11.25C8.885 11.6492 9.02167 12.1583 9.42 12.3883L10.2317 12.8567C10.0933 13.2708 10 13.7058 10 14.1667C10 14.6275 10.0925 15.0625 10.2317 15.4767L9.42 15.945C9.02167 16.175 8.885 16.685 9.115 17.0833C9.27 17.3508 9.54917 17.5 9.8375 17.5C9.97833 17.5 10.1217 17.4642 10.2533 17.3883L11.0642 16.92C11.6517 17.5817 12.4342 18.0658 13.3333 18.2483V19.1658C13.3333 19.6258 13.7067 19.9992 14.1667 19.9992C14.6267 19.9992 15 19.6258 15 19.1658V18.2483C15.8992 18.065 16.6817 17.5808 17.2692 16.92L18.08 17.3883C18.2117 17.4642 18.355 17.5 18.4958 17.5C18.7842 17.5 19.0642 17.3508 19.2183 17.0833C19.4483 16.6842 19.3117 16.175 18.9133 15.945ZM14.1667 16.6667C12.7883 16.6667 11.6667 15.545 11.6667 14.1667C11.6667 12.7883 12.7883 11.6667 14.1667 11.6667C15.545 11.6667 16.6667 12.7883 16.6667 14.1667C16.6667 15.545 15.545 16.6667 14.1667 16.6667ZM4.16667 8.33333C2.78833 8.33333 1.66667 9.455 1.66667 10.8333C1.66667 11.2933 1.29333 11.6667 0.833333 11.6667C0.373333 11.6667 0 11.2933 0 10.8333C0 8.53583 1.86917 6.66667 4.16667 6.66667C4.62667 6.66667 5 7.04 5 7.5C5 7.96 4.62667 8.33333 4.16667 8.33333ZM8.33333 14.1667C8.33333 14.6267 7.96 15 7.5 15C6.12167 15 5 16.1217 5 17.5C5 17.96 4.62667 18.3333 4.16667 18.3333C3.70667 18.3333 3.33333 17.96 3.33333 17.5C3.33333 15.2025 5.2025 13.3333 7.5 13.3333C7.96 13.3333 8.33333 13.7067 8.33333 14.1667Z" />
</g>
<defs>
<clipPath id="clip0_15888_4037">
<rect width="20" height="20" />
</clipPath>
</defs>
</svg>
