<svg width="14" height="14" viewBox="0 0 14 14" fill="#C5C6C9" xmlns="http://www.w3.org/2000/svg">
<g clip-path="url(#clip0_54193_1400)">
<path d="M0.169775 4.98864C0.0440792 4.75549 -0.0141536 4.49193 0.00161145 4.22753C0.0173765 3.96313 0.106515 3.70836 0.259025 3.4918C0.508259 3.12612 0.842034 2.82596 1.23202 2.6168L5.60761 0.339471C6.03768 0.115839 6.51529 -0.000915527 7.00003 -0.000915527C7.48476 -0.000915527 7.96237 0.115839 8.39244 0.339471L12.7674 2.61855C13.1574 2.82771 13.4912 3.12787 13.7404 3.49355C13.893 3.71011 13.9821 3.96488 13.9979 4.22928C14.0136 4.49368 13.9554 4.75724 13.8297 4.99039C13.6944 5.24637 13.4914 5.46032 13.2429 5.60895C12.9944 5.75757 12.7099 5.83517 12.4204 5.8333H1.57969C1.28987 5.83511 1.00511 5.7573 0.756485 5.60835C0.507858 5.4594 0.304909 5.24504 0.169775 4.98864ZM13.4167 12.8333C13.4167 12.5239 13.2938 12.2271 13.075 12.0083C12.8562 11.7896 12.5594 11.6666 12.25 11.6666V6.99997H11.0834V11.6666H9.33336V6.99997H8.16669V11.6666H5.83336V6.99997H4.66669V11.6666H2.91669V6.99997H1.75002V11.6666C1.44061 11.6666 1.14386 11.7896 0.925067 12.0083C0.706274 12.2271 0.583358 12.5239 0.583358 12.8333C0.428648 12.8333 0.280275 12.8948 0.170879 13.0042C0.0614827 13.1136 2.45364e-05 13.2619 2.45364e-05 13.4166C2.45364e-05 13.5713 0.0614827 13.7197 0.170879 13.8291C0.280275 13.9385 0.428648 14 0.583358 14H13.4167C13.5714 14 13.7198 13.9385 13.8292 13.8291C13.9386 13.7197 14 13.5713 14 13.4166C14 13.2619 13.9386 13.1136 13.8292 13.0042C13.7198 12.8948 13.5714 12.8333 13.4167 12.8333Z" />
</g>
<defs>
<clipPath id="clip0_54193_1400">
<rect width="14" height="14" />
</clipPath>
</defs>
</svg>
