<svg width="20" height="20" viewBox="0 0 20 20" fill="#C5C6C9" xmlns="http://www.w3.org/2000/svg">
<g clip-path="url(#clip0_15888_3750)">
<path d="M20 9.38312C19.8795 7.43508 19.191 5.56486 18.0194 4.00302C16.8478 2.44118 15.2444 1.25599 13.4067 0.59357C11.5691 -0.0688491 9.57757 -0.179542 7.67771 0.275139C5.77785 0.729819 4.0527 1.73 2.71494 3.15236C1.37718 4.57473 0.485285 6.35711 0.149218 8.27977C-0.186848 10.2024 0.0476021 12.1813 0.823665 13.9725C1.59973 15.7636 2.88348 17.2887 4.51665 18.3598C6.14982 19.4308 8.06103 20.001 10.0146 20H15.8335C16.9382 19.9989 17.9973 19.56 18.7785 18.7796C19.5596 17.9992 19.9989 16.9411 20 15.8375V9.38312ZM18.3334 15.8375C18.3334 16.4999 18.07 17.1351 17.6012 17.6035C17.1324 18.0719 16.4965 18.335 15.8335 18.335H10.0146C8.8388 18.3345 7.67628 18.0863 6.60288 17.6068C5.52947 17.1273 4.56929 16.4271 3.78493 15.5519C2.99678 14.6772 2.40494 13.6442 2.04909 12.5223C1.69324 11.4004 1.58161 10.2154 1.72169 9.04679C1.94288 7.20358 2.7718 5.48634 4.07778 4.16577C5.38377 2.84521 7.09253 1.99643 8.93469 1.75325C9.29403 1.70825 9.65581 1.68545 10.018 1.68498C11.9599 1.67969 13.8418 2.35756 15.3336 3.59973C16.2048 4.32313 16.9199 5.21574 17.4356 6.22347C17.9512 7.23119 18.2567 8.33303 18.3334 9.4622V15.8375Z" />
<path d="M6.66777 7.51217H10.0009C10.2219 7.51217 10.4339 7.42446 10.5902 7.26833C10.7464 7.11221 10.8342 6.90046 10.8342 6.67967C10.8342 6.45887 10.7464 6.24713 10.5902 6.091C10.4339 5.93488 10.2219 5.84717 10.0009 5.84717H6.66777C6.44676 5.84717 6.23481 5.93488 6.07854 6.091C5.92227 6.24713 5.83447 6.45887 5.83447 6.67967C5.83447 6.90046 5.92227 7.11221 6.07854 7.26833C6.23481 7.42446 6.44676 7.51217 6.66777 7.51217Z" />
<path d="M13.3341 9.17749H6.66777C6.44676 9.17749 6.23481 9.2652 6.07854 9.42133C5.92227 9.57745 5.83447 9.7892 5.83447 10.01C5.83447 10.2308 5.92227 10.4425 6.07854 10.5987C6.23481 10.7548 6.44676 10.8425 6.66777 10.8425H13.3341C13.5551 10.8425 13.7671 10.7548 13.9233 10.5987C14.0796 10.4425 14.1674 10.2308 14.1674 10.01C14.1674 9.7892 14.0796 9.57745 13.9233 9.42133C13.7671 9.2652 13.5551 9.17749 13.3341 9.17749Z" />
<path d="M13.3341 12.5073H6.66777C6.44676 12.5073 6.23481 12.595 6.07854 12.7512C5.92227 12.9073 5.83447 13.119 5.83447 13.3398C5.83447 13.5606 5.92227 13.7724 6.07854 13.9285C6.23481 14.0846 6.44676 14.1723 6.66777 14.1723H13.3341C13.5551 14.1723 13.7671 14.0846 13.9233 13.9285C14.0796 13.7724 14.1674 13.5606 14.1674 13.3398C14.1674 13.119 14.0796 12.9073 13.9233 12.7512C13.7671 12.595 13.5551 12.5073 13.3341 12.5073Z" />
</g>
<defs>
<clipPath id="clip0_15888_3750">
<rect width="20" height="20" fill="white"/>
</clipPath>
</defs>
</svg>
