<svg width="18" height="19" viewBox="0 0 18 19" fill="#6B7280" xmlns="http://www.w3.org/2000/svg">
<path fill-rule="evenodd" clip-rule="evenodd" d="M16.7143 5.06667V3.8076C16.7143 3.10333 16.1357 2.53333 15.4209 2.53333H12.8571V3.8H11.5714V2.53333H6.42857V3.8H5.14286V2.53333H2.57914C1.86429 2.53333 1.28571 3.10333 1.28571 3.8076V16.4591C1.28571 17.1633 1.86429 17.7333 2.57914 17.7333H15.4209C16.1357 17.7333 16.7143 17.1633 16.7143 16.4591V6.33333H1.28571V5.06667H16.7143ZM12.8571 1.26667H15.4209C16.8454 1.26667 18 2.40287 18 3.8076V16.4591C18.0002 16.7928 17.9336 17.1233 17.804 17.4316C17.6745 17.74 17.4845 18.0202 17.245 18.2561C17.0054 18.4921 16.721 18.6793 16.4081 18.8069C16.0951 18.9346 15.7596 19.0002 15.4209 19H2.57914C2.2404 19.0002 1.90494 18.9346 1.59195 18.8069C1.27896 18.6793 0.994566 18.4921 0.755037 18.2561C0.515508 18.0202 0.325536 17.74 0.195982 17.4316C0.0664275 17.1233 -0.000168672 16.7928 3.20817e-07 16.4591V3.8076C3.20817e-07 2.40413 1.15329 1.26667 2.57914 1.26667H5.14286V0H6.42857V1.26667H11.5714V0H12.8571V1.26667ZM3.85714 8.86667H6.42857V10.1333H3.85714V8.86667ZM7.71429 8.86667H10.2857V10.1333H7.71429V8.86667ZM11.5714 8.86667H14.1429V10.1333H11.5714V8.86667ZM3.85714 11.4H6.42857V12.6667H3.85714V11.4ZM7.71429 11.4H10.2857V12.6667H7.71429V11.4ZM11.5714 11.4H14.1429V12.6667H11.5714V11.4ZM3.85714 13.9333H6.42857V15.2H3.85714V13.9333ZM7.71429 13.9333H10.2857V15.2H7.71429V13.9333ZM11.5714 13.9333H14.1429V15.2H11.5714V13.9333Z" />
</svg>
