<svg width="14" height="14" viewBox="0 0 14 14" fill="#C5C6C9" xmlns="http://www.w3.org/2000/svg">
<g clip-path="url(#clip0_54193_1293)">
<path d="M10.3906 13.175H10.3907C11.1289 13.1741 11.8365 12.8805 12.3585 12.3585C12.8805 11.8365 13.1741 11.1289 13.175 10.3907V10.3906V9.29688C13.175 9.13857 13.1121 8.98676 13.0002 8.87482C12.8882 8.76288 12.7364 8.7 12.5781 8.7C12.4198 8.7 12.268 8.76288 12.1561 8.87482C12.0441 8.98676 11.9813 9.13857 11.9813 9.29688V10.3906C11.9813 10.8125 11.8137 11.2171 11.5154 11.5154C11.2171 11.8137 10.8125 11.9813 10.3906 11.9813H9.29688C9.13857 11.9813 8.98676 12.0441 8.87482 12.1561C8.76288 12.268 8.7 12.4198 8.7 12.5781C8.7 12.7364 8.76288 12.8882 8.87482 13.0002C8.98676 13.1121 9.13857 13.175 9.29688 13.175H10.3906Z"   stroke-width="0.1"/>
<path d="M3.60938 0.825L3.60932 0.825C2.87114 0.825884 2.16345 1.11951 1.64148 1.64148C1.11951 2.16345 0.825884 2.87114 0.825 3.60932V3.60938V4.70312C0.825 4.86143 0.887885 5.01324 0.999821 5.12518C1.11176 5.23711 1.26357 5.3 1.42188 5.3C1.58018 5.3 1.73199 5.23711 1.84393 5.12518C1.95587 5.01324 2.01875 4.86143 2.01875 4.70312V3.60938C2.01875 3.18752 2.18633 2.78293 2.48463 2.48463C2.78293 2.18633 3.18752 2.01875 3.60938 2.01875H4.70312C4.86143 2.01875 5.01324 1.95587 5.12518 1.84393C5.23711 1.73199 5.3 1.58018 5.3 1.42188C5.3 1.26357 5.23711 1.11176 5.12518 0.999821C5.01324 0.887885 4.86143 0.825 4.70312 0.825L3.60938 0.825Z"   stroke-width="0.1"/>
<path d="M0.825 10.3906L0.825 10.3907C0.825884 11.1289 1.11951 11.8365 1.64148 12.3585C2.16345 12.8805 2.87114 13.1741 3.60932 13.175H3.60938H4.70312C4.86143 13.175 5.01324 13.1121 5.12518 13.0002C5.23711 12.8882 5.3 12.7364 5.3 12.5781C5.3 12.4198 5.23711 12.268 5.12518 12.1561C5.01324 12.0441 4.86143 11.9813 4.70312 11.9813H3.60938C3.18752 11.9813 2.78293 11.8137 2.48463 11.5154C2.18633 11.2171 2.01875 10.8125 2.01875 10.3906V9.29688C2.01875 9.13857 1.95587 8.98676 1.84393 8.87482C1.73199 8.76288 1.58018 8.7 1.42188 8.7C1.26357 8.7 1.11176 8.76288 0.999821 8.87482C0.887885 8.98676 0.825 9.13857 0.825 9.29688L0.825 10.3906Z"   stroke-width="0.1"/>
<path d="M10.3406 0.825H9.29688C9.13857 0.825 8.98676 0.887885 8.87482 0.999821C8.76288 1.11176 8.7 1.26357 8.7 1.42188C8.7 1.58018 8.76288 1.73199 8.87482 1.84393C8.98676 1.95587 9.13857 2.01875 9.29688 2.01875H10.3906C10.8125 2.01875 11.2171 2.18633 11.5154 2.48463C11.8137 2.78293 11.9813 3.18752 11.9813 3.60938V4.70312C11.9813 4.86143 12.0441 5.01324 12.1561 5.12518C12.268 5.23711 12.4198 5.3 12.5781 5.3C12.7364 5.3 12.8882 5.23711 13.0002 5.12518C13.1121 5.01324 13.175 4.86143 13.175 4.70312V3.60938V3.60932C13.1741 2.87114 12.8805 2.16345 12.3585 1.64148C11.8365 1.11951 11.1289 0.825884 10.3907 0.825L10.3906 0.825L10.3406 0.82494V0.825Z"   stroke-width="0.1"/>
<path d="M7 6.125C7.9665 6.125 8.75 5.3415 8.75 4.375C8.75 3.4085 7.9665 2.625 7 2.625C6.0335 2.625 5.25 3.4085 5.25 4.375C5.25 5.3415 6.0335 6.125 7 6.125Z" />
<path d="M6.5 7C5.70459 7.00079 4.94199 7.31712 4.37956 7.87956C3.81712 8.44199 3.50079 9.20459 3.5 10C3.5 10.1326 3.55268 10.2598 3.64645 10.3536C3.74021 10.4473 3.86739 10.5 4 10.5H10C10.1326 10.5 10.2598 10.4473 10.3536 10.3536C10.4473 10.2598 10.5 10.1326 10.5 10C10.4992 9.20459 10.1829 8.44199 9.62044 7.87956C9.05801 7.31712 8.29541 7.00079 7.5 7H6.5Z" />
</g>
<defs>
<clipPath id="clip0_54193_1293">
<rect width="14" height="14" />
</clipPath>
</defs>
</svg>
