<svg width="20" height="20" viewBox="0 0 20 20" fill="#C5C6C9" xmlns="http://www.w3.org/2000/svg">
<g clip-path="url(#clip0_15884_60294)">
<path d="M19.4036 3.3974C19.1633 3.1161 18.8625 2.88987 18.5225 2.73476C18.1824 2.57966 17.8116 2.49948 17.4362 2.49992H3.62393L3.58805 2.20743C3.51462 1.59947 3.21505 1.03891 2.74613 0.632046C2.27721 0.225179 1.67154 0.000284819 1.04395 0L0.854297 0C0.627723 0 0.410429 0.0877947 0.250218 0.24407C0.090006 0.400346 0 0.612301 0 0.833308C0 1.05432 0.090006 1.26627 0.250218 1.42255C0.410429 1.57882 0.627723 1.66662 0.854297 1.66662H1.04395C1.2532 1.66664 1.45516 1.74158 1.61152 1.87721C1.76789 2.01283 1.86779 2.19972 1.89227 2.40243L3.06778 12.1521C3.18982 13.1661 3.68926 14.1011 4.47131 14.7796C5.25336 15.4581 6.26358 15.8329 7.31022 15.8329H16.2316C16.4582 15.8329 16.6755 15.7451 16.8357 15.5888C16.9959 15.4325 17.0859 15.2206 17.0859 14.9995C17.0859 14.7785 16.9959 14.5666 16.8357 14.4103C16.6755 14.254 16.4582 14.1662 16.2316 14.1662H7.31022C6.78146 14.1648 6.26609 14.0038 5.83479 13.7055C5.40349 13.4071 5.07735 12.9859 4.9011 12.4996H15.0843C16.0858 12.4997 17.0555 12.1565 17.8239 11.53C18.5923 10.9035 19.1106 10.0336 19.2883 9.07223L19.9589 5.444C20.0259 5.08402 20.0108 4.71408 19.9149 4.3604C19.8189 4.00672 19.6444 3.67795 19.4036 3.3974ZM18.2819 5.14818L17.6105 8.7764C17.5038 9.35388 17.1923 9.87636 16.7304 10.2524C16.2686 10.6283 15.6859 10.8339 15.0843 10.833H4.62943L3.82554 4.16654H17.4362C17.5617 4.16581 17.6858 4.19206 17.7997 4.24342C17.9136 4.29478 18.0146 4.36999 18.0953 4.4637C18.176 4.55742 18.2346 4.66734 18.2669 4.78564C18.2991 4.90394 18.3043 5.02772 18.2819 5.14818Z" />
<path d="M5.98007 20C6.9237 20 7.68866 19.2538 7.68866 18.3334C7.68866 17.4129 6.9237 16.6667 5.98007 16.6667C5.03645 16.6667 4.27148 17.4129 4.27148 18.3334C4.27148 19.2538 5.03645 20 5.98007 20Z" />
<path d="M14.523 20C15.4667 20 16.2316 19.2538 16.2316 18.3334C16.2316 17.4129 15.4667 16.6667 14.523 16.6667C13.5794 16.6667 12.8145 17.4129 12.8145 18.3334C12.8145 19.2538 13.5794 20 14.523 20Z" />
</g>
<defs>
<clipPath id="clip0_15884_60294">
<rect width="20" height="20" />
</clipPath>
</defs>
</svg>
