<svg width="14" height="14" viewBox="0 0 14 14" fill="#C5C6C9" xmlns="http://www.w3.org/2000/svg">
<g clip-path="url(#clip0_15888_2931)">
<path d="M14 5.83338C14 5.7908 13.9953 5.74835 13.986 5.7068L13.2277 2.2838C13.0868 1.6341 12.7268 1.05261 12.2081 0.636805C11.6894 0.221005 11.0435 -0.00381289 10.3787 4.89352e-05H3.62133C2.95695 -0.00327624 2.31159 0.221787 1.79336 0.637543C1.27512 1.0533 0.915482 1.6345 0.774667 2.2838L0.0140008 5.7068C0.00467219 5.74835 -2.31349e-05 5.7908 7.98815e-07 5.83338V6.41672C-0.000469839 6.98465 0.207038 7.53309 0.583334 7.95847V11.0834C0.58426 11.8566 0.891849 12.598 1.43863 13.1448C1.98541 13.6915 2.72674 13.9991 3.5 14H10.5C11.2733 13.9991 12.0146 13.6915 12.5614 13.1448C13.1082 12.598 13.4157 11.8566 13.4167 11.0834V7.95847C13.793 7.53309 14.0005 6.98465 14 6.41672V5.83338ZM1.16667 5.89697L1.91333 2.53697C1.99794 2.14745 2.21376 1.7988 2.52467 1.54937C2.83559 1.29994 3.22274 1.16485 3.62133 1.16672H4.08333V2.91672C4.08333 3.07143 4.14479 3.2198 4.25419 3.32919C4.36358 3.43859 4.51196 3.50005 4.66667 3.50005C4.82138 3.50005 4.96975 3.43859 5.07915 3.32919C5.18854 3.2198 5.25 3.07143 5.25 2.91672V1.16672H8.75V2.91672C8.75 3.07143 8.81146 3.2198 8.92086 3.32919C9.03025 3.43859 9.17863 3.50005 9.33333 3.50005C9.48804 3.50005 9.63642 3.43859 9.74581 3.32919C9.85521 3.2198 9.91667 3.07143 9.91667 2.91672V1.16672H10.3787C10.7773 1.16485 11.1644 1.29994 11.4753 1.54937C11.7862 1.7988 12.0021 2.14745 12.0867 2.53697L12.8333 5.89697V6.41672C12.8333 6.72614 12.7104 7.02288 12.4916 7.24167C12.2728 7.46047 11.9761 7.58338 11.6667 7.58338H11.0833C10.7739 7.58338 10.4772 7.46047 10.2584 7.24167C10.0396 7.02288 9.91667 6.72614 9.91667 6.41672C9.91667 6.26201 9.85521 6.11363 9.74581 6.00424C9.63642 5.89484 9.48804 5.83338 9.33333 5.83338C9.17863 5.83338 9.03025 5.89484 8.92086 6.00424C8.81146 6.11363 8.75 6.26201 8.75 6.41672C8.75 6.72614 8.62708 7.02288 8.40829 7.24167C8.1895 7.46047 7.89275 7.58338 7.58333 7.58338H6.41667C6.10725 7.58338 5.8105 7.46047 5.59171 7.24167C5.37292 7.02288 5.25 6.72614 5.25 6.41672C5.25 6.26201 5.18854 6.11363 5.07915 6.00424C4.96975 5.89484 4.82138 5.83338 4.66667 5.83338C4.51196 5.83338 4.36358 5.89484 4.25419 6.00424C4.14479 6.11363 4.08333 6.26201 4.08333 6.41672C4.08333 6.72614 3.96042 7.02288 3.74163 7.24167C3.52283 7.46047 3.22609 7.58338 2.91667 7.58338H2.33333C2.02392 7.58338 1.72717 7.46047 1.50838 7.24167C1.28958 7.02288 1.16667 6.72614 1.16667 6.41672V5.89697ZM10.5 12.8334H3.5C3.03587 12.8334 2.59075 12.649 2.26256 12.3208C1.93438 11.9926 1.75 11.5475 1.75 11.0834V8.67597C1.94052 8.7253 2.13654 8.75019 2.33333 8.75005H2.91667C3.24789 8.75022 3.57534 8.6797 3.87713 8.54319C4.17892 8.40668 4.44809 8.20733 4.66667 7.95847C4.88524 8.20733 5.15442 8.40668 5.45621 8.54319C5.75799 8.6797 6.08544 8.75022 6.41667 8.75005H7.58333C7.91456 8.75022 8.24201 8.6797 8.5438 8.54319C8.84558 8.40668 9.11476 8.20733 9.33333 7.95847C9.55191 8.20733 9.82109 8.40668 10.1229 8.54319C10.4247 8.6797 10.7521 8.75022 11.0833 8.75005H11.6667C11.8635 8.75019 12.0595 8.7253 12.25 8.67597V11.0834C12.25 11.5475 12.0656 11.9926 11.7374 12.3208C11.4093 12.649 10.9641 12.8334 10.5 12.8334Z" />
</g>
<defs>
<clipPath id="clip0_15888_2931">
<rect width="14" height="14" fill="white"/>
</clipPath>
</defs>
</svg>
